HIERARCHY
ROOT root
{
	OFFSET 0.000000 0.054209 0.736571
	CHANNELS 6 Xposition Yposition Zposition Xrotation Yrotation Zrotation
	JOINT spine04
	{
		OFFSET 0.000000 -0.030951 0.078753
		CHANNELS 6 Xposition Yposition Zposition Xrotation Yrotation Zrotation
		JOINT spine02
		{
			OFFSET 0.000000 -0.000238 0.104623
			CHANNELS 6 Xposition Yposition Zposition Xrotation Yrotation Zrotation
			JOINT spine01
			{
				OFFSET 0.000000 0.017421 0.109292
				CHANNELS 3 Xrotation Yrotation Zrotation
				JOINT neck01
				{
					OFFSET 0.000000 -0.049753 0.167208
					CHANNELS 6 Xposition Yposition Zposition Xrotation Yrotation Zrotation
					JOINT neck02
					{
						OFFSET 0.000000 0.005512 0.021216
						CHANNELS 3 Xrotation Yrotation Zrotation
						JOINT jaw
						{
							OFFSET 0.000000 -0.043573 0.063271
							CHANNELS 6 Xposition Yposition Zposition Xrotation Yrotation Zrotation
							End Site
							{
								OFFSET 0.000000 -0.008974 0.006557
							}
						}
						JOINT eye.L
						{
							OFFSET 0.023675 -0.098122 0.090003
							CHANNELS 3 Xrotation Yrotation Zrotation
							End Site
							{
								OFFSET 0.001819 -0.030370 -0.004421
							}
						}
						JOINT orbicularis03.L
						{
							OFFSET 0.023675 -0.098122 0.090003
							CHANNELS 3 Xrotation Yrotation Zrotation
							End Site
							{
								OFFSET 0.001761 -0.029014 0.005250
							}
						}
						JOINT eye.R
						{
							OFFSET -0.023674 -0.098122 0.090003
							CHANNELS 3 Xrotation Yrotation Zrotation
							End Site
							{
								OFFSET -0.001819 -0.030370 -0.004421
							}
						}
						JOINT orbicularis03.R
						{
							OFFSET -0.023674 -0.098122 0.090003
							CHANNELS 3 Xrotation Yrotation Zrotation
							End Site
							{
								OFFSET -0.001761 -0.029014 0.005250
							}
						}
						End Site
						{
							OFFSET 0.000000 0.005511 0.021217
						}
					}
				}
				JOINT clavicle.R
				{
					OFFSET -0.018367 -0.058464 0.107155
					CHANNELS 6 Xposition Yposition Zposition Xrotation Yrotation Zrotation
					JOINT upperarm01.R
					{
						OFFSET -0.132020 0.003642 -0.024313
						CHANNELS 6 Xposition Yposition Zposition Xrotation Yrotation Zrotation
						JOINT lowerarm01.R
						{
							OFFSET -0.133638 0.001770 -0.153088
							CHANNELS 6 Xposition Yposition Zposition Xrotation Yrotation Zrotation
							JOINT wrist.R
							{
								OFFSET -0.108574 -0.154815 -0.103768
								CHANNELS 6 Xposition Yposition Zposition Xrotation Yrotation Zrotation
								JOINT finger2-1.R
								{
									OFFSET -0.024321 -0.084906 -0.032804
									CHANNELS 3 Xrotation Yrotation Zrotation
									JOINT finger2-2.R
									{
										OFFSET -0.002927 -0.018838 -0.012653
										CHANNELS 3 Xrotation Yrotation Zrotation
										JOINT finger2-3.R
										{
											OFFSET 0.000460 -0.015088 -0.013862
											CHANNELS 3 Xrotation Yrotation Zrotation
											End Site
											{
												OFFSET 0.003042 -0.016083 -0.016987
											}
										}
									}
								}
								JOINT finger3-1.R
								{
									OFFSET -0.038828 -0.069770 -0.043127
									CHANNELS 3 Xrotation Yrotation Zrotation
									JOINT finger3-2.R
									{
										OFFSET -0.006387 -0.018854 -0.022184
										CHANNELS 3 Xrotation Yrotation Zrotation
										JOINT finger3-3.R
										{
											OFFSET -0.002379 -0.015757 -0.018305
											CHANNELS 3 Xrotation Yrotation Zrotation
											End Site
											{
												OFFSET 0.000156 -0.013802 -0.019326
											}
										}
									}
								}
								JOINT finger4-1.R
								{
									OFFSET -0.045586 -0.054771 -0.050312
									CHANNELS 3 Xrotation Yrotation Zrotation
									JOINT finger4-2.R
									{
										OFFSET -0.008217 -0.013209 -0.021152
										CHANNELS 3 Xrotation Yrotation Zrotation
										JOINT finger4-3.R
										{
											OFFSET -0.003838 -0.011895 -0.018031
											CHANNELS 3 Xrotation Yrotation Zrotation
											End Site
											{
												OFFSET -0.002024 -0.010563 -0.020894
											}
										}
									}
								}
								JOINT finger5-1.R
								{
									OFFSET -0.046820 -0.037780 -0.058682
									CHANNELS 3 Xrotation Yrotation Zrotation
									JOINT finger5-2.R
									{
										OFFSET -0.005233 -0.007322 -0.016539
										CHANNELS 3 Xrotation Yrotation Zrotation
										JOINT finger5-3.R
										{
											OFFSET -0.001524 -0.005483 -0.012548
											CHANNELS 3 Xrotation Yrotation Zrotation
											End Site
											{
												OFFSET -0.002248 -0.006725 -0.016024
											}
										}
									}
								}
								JOINT finger1-1.R
								{
									OFFSET -0.000927 -0.039280 -0.005363
									CHANNELS 3 Xrotation Yrotation Zrotation
									JOINT finger1-2.R
									{
										OFFSET 0.018386 -0.018805 -0.006895
										CHANNELS 3 Xrotation Yrotation Zrotation
										JOINT finger1-3.R
										{
											OFFSET 0.010991 -0.028095 -0.011249
											CHANNELS 3 Xrotation Yrotation Zrotation
											End Site
											{
												OFFSET 0.004840 -0.019091 -0.014527
											}
										}
									}
								}
							}
						}
					}
				}
				JOINT clavicle.L
				{
					OFFSET 0.018367 -0.058465 0.107155
					CHANNELS 6 Xposition Yposition Zposition Xrotation Yrotation Zrotation
					JOINT upperarm01.L
					{
						OFFSET 0.132020 0.003642 -0.024313
						CHANNELS 6 Xposition Yposition Zposition Xrotation Yrotation Zrotation
						JOINT lowerarm01.L
						{
							OFFSET 0.133637 0.001770 -0.153088
							CHANNELS 6 Xposition Yposition Zposition Xrotation Yrotation Zrotation
							JOINT wrist.L
							{
								OFFSET 0.108574 -0.154815 -0.103768
								CHANNELS 6 Xposition Yposition Zposition Xrotation Yrotation Zrotation
								JOINT finger2-1.L
								{
									OFFSET 0.024321 -0.084906 -0.032804
									CHANNELS 3 Xrotation Yrotation Zrotation
									JOINT finger2-2.L
									{
										OFFSET 0.002927 -0.018838 -0.012653
										CHANNELS 3 Xrotation Yrotation Zrotation
										JOINT finger2-3.L
										{
											OFFSET -0.000460 -0.015088 -0.013862
											CHANNELS 3 Xrotation Yrotation Zrotation
											End Site
											{
												OFFSET -0.003042 -0.016083 -0.016987
											}
										}
									}
								}
								JOINT finger3-1.L
								{
									OFFSET 0.038828 -0.069770 -0.043127
									CHANNELS 3 Xrotation Yrotation Zrotation
									JOINT finger3-2.L
									{
										OFFSET 0.006387 -0.018854 -0.022184
										CHANNELS 3 Xrotation Yrotation Zrotation
										JOINT finger3-3.L
										{
											OFFSET 0.002379 -0.015757 -0.018305
											CHANNELS 3 Xrotation Yrotation Zrotation
											End Site
											{
												OFFSET -0.000156 -0.013802 -0.019326
											}
										}
									}
								}
								JOINT finger4-1.L
								{
									OFFSET 0.045586 -0.054771 -0.050312
									CHANNELS 3 Xrotation Yrotation Zrotation
									JOINT finger4-2.L
									{
										OFFSET 0.008217 -0.013209 -0.021152
										CHANNELS 3 Xrotation Yrotation Zrotation
										JOINT finger4-3.L
										{
											OFFSET 0.003839 -0.011895 -0.018031
											CHANNELS 3 Xrotation Yrotation Zrotation
											End Site
											{
												OFFSET 0.002024 -0.010563 -0.020894
											}
										}
									}
								}
								JOINT finger5-1.L
								{
									OFFSET 0.046820 -0.037780 -0.058682
									CHANNELS 3 Xrotation Yrotation Zrotation
									JOINT finger5-2.L
									{
										OFFSET 0.005234 -0.007322 -0.016539
										CHANNELS 3 Xrotation Yrotation Zrotation
										JOINT finger5-3.L
										{
											OFFSET 0.001524 -0.005483 -0.012548
											CHANNELS 3 Xrotation Yrotation Zrotation
											End Site
											{
												OFFSET 0.002248 -0.006725 -0.016024
											}
										}
									}
								}
								JOINT finger1-1.L
								{
									OFFSET 0.000927 -0.039280 -0.005363
									CHANNELS 3 Xrotation Yrotation Zrotation
									JOINT finger1-2.L
									{
										OFFSET -0.018386 -0.018805 -0.006894
										CHANNELS 3 Xrotation Yrotation Zrotation
										JOINT finger1-3.L
										{
											OFFSET -0.010991 -0.028095 -0.011249
											CHANNELS 3 Xrotation Yrotation Zrotation
											End Site
											{
												OFFSET -0.004839 -0.019091 -0.014527
											}
										}
									}
								}
							}
						}
					}
				}
			}
		}
	}
	JOINT upperleg01.R
	{
		OFFSET -0.087495 -0.048056 0.004242
		CHANNELS 6 Xposition Yposition Zposition Xrotation Yrotation Zrotation
		JOINT lowerleg01.R
		{
			OFFSET -0.034522 -0.027831 -0.333803
			CHANNELS 6 Xposition Yposition Zposition Xrotation Yrotation Zrotation
			JOINT foot.R
			{
				OFFSET -0.037458 0.009413 -0.349633
				CHANNELS 3 Xrotation Yrotation Zrotation
				JOINT toe1-1.R
				{
					OFFSET -0.003290 -0.101211 -0.050981
					CHANNELS 6 Xposition Yposition Zposition Xrotation Yrotation Zrotation
					End Site
					{
						OFFSET 0.000524 -0.066142 0.003009
					}
				}
			}
		}
	}
	JOINT upperleg01.L
	{
		OFFSET 0.087495 -0.048056 0.004242
		CHANNELS 6 Xposition Yposition Zposition Xrotation Yrotation Zrotation
		JOINT lowerleg01.L
		{
			OFFSET 0.034522 -0.027831 -0.333803
			CHANNELS 6 Xposition Yposition Zposition Xrotation Yrotation Zrotation
			JOINT foot.L
			{
				OFFSET 0.037458 0.009413 -0.349633
				CHANNELS 3 Xrotation Yrotation Zrotation
				JOINT toe1-1.L
				{
					OFFSET 0.003290 -0.101211 -0.050981
					CHANNELS 6 Xposition Yposition Zposition Xrotation Yrotation Zrotation
					End Site
					{
						OFFSET -0.000524 -0.066142 0.003009
					}
				}
			}
		}
	}
}
MOTION
Frames: 5
Frame Time:	0.016667
0 0.0542 0.7366 0 0 0 0 -0.0506 0.0788 0 0 0 0 -0.0232 0.1046 0 0 0 0 0 0 0 -0.0498 0.1672 0 0 0 0 0 0 0 -0.0436 0.0633 0 0 0 0 0 0 0 0 0 0 0 0 0 0 0 -0.0184 -0.0585 0.1072 0 0 0 -0.1356 -0.0037 -0.0169 0 0 0 -0.1336 0.0018 -0.1531 0 0 0 -0.1086 -0.1548 -0.1038 0 0 0 0 0 0 0 0 0 0 0 0 0 0 0 0 0 0 0 0 0 0 0 0 0 0 0 0 0 0 0 0 0 0 0 0 0 0 0 0 0 0 0 0 0 0 0 0 0.0184 -0.0585 0.1072 0 0 0 0.1356 -0.0037 -0.0169 0 0 0 0.1336 0.0018 -0.1531 0 0 0 0.1086 -0.1548 -0.1038 0 0 0 0 0 0 0 0 0 0 0 0 0 0 0 0 0 0 0 0 0 0 0 0 0 0 0 0 0 0 0 0 0 0 0 0 0 0 0 0 0 0 0 0 0 0 0 0 -0.0875 -0.0481 0.0042 0 0 0 -0.0345 -0.0278 -0.3338 0 0 0 0 0 0 -0.0033 -0.1012 -0.051 0 0 0 0.0875 -0.0481 0.0042 0 0 0 0.0345 -0.0278 -0.3338 0 0 0 0 0 0 0.0033 -0.1012 -0.051 0 0 0 
0.5814 -0.3248 0.7028 -2.5964 -1.014 -125.6623 -0.0004 -0.0316 0.0778 -1.1201 -0.0609 1.3166 -0.0006 -0.001 0.1054 3.0045 0.2821 1.4637 0 0 0 0 -0.0485 0.1662 15.2391 2.8396 11.4387 -24.8942 4.4146 14.4743 0 -0.0436 0.0633 0 -0.0001 0 5.1939 -0.1458 -3.6795 4.4111 0.2747 0.0229 5.1939 -0.1459 -3.6795 5.0002 -0.3116 -0.0243 -0.0184 -0.0578 0.1067 0.5575 -4.6158 -3.3271 -0.1356 -0.0037 -0.0169 25.4658 -18.2043 8.3014 -0.1336 0.0017 -0.1531 1.7018 4.9168 21.0195 -0.1086 -0.1548 -0.1038 9.2641 35.5775 -16.5488 15.0093 -17.347 3.9555 20.446 -14.1667 15.4247 26.9239 -15.5233 20.2748 -3.8824 -6.3132 3.2558 14.8417 -18.6184 10.1796 12.5199 -17.6022 9.0486 -7.1711 -6.0513 4.9406 13.3374 -20.3728 6.485 9.8567 -20.5751 6.9476 -11.425 -10.6339 4.5757 10.1023 -19.4041 1.7454 12.2755 -24.1869 5.0319 -6.4974 -33.4017 -33.6621 16.0465 15.5162 -40.5498 10.5595 22.6999 -51.9632 0.0184 -0.0578 0.1067 -0.1976 3.2973 -1.0346 0.1356 -0.0037 -0.0169 29.7619 25.0206 -1.4427 0.1336 0.0017 -0.1531 -7.1873 5.0111 -23.7742 0.1086 -0.1548 -0.1037 10.8271 -48.006 10.5714 43.4465 24.1508 -33.2776 47.5999 17.238 -41.22 52.4648 16.5575 -44.7272 -5.4029 4.1867 -1.9996 13.283 17.026 -8.6679 10.967 15.9619 -7.5685 -8.593 3.6342 -4.0455 12.0019 18.4406 -5.2533 8.4367 18.5526 -5.7054 -13.0529 7.7445 -3.7425 8.8297 16.9245 -0.6621 10.7614 21.696 -3.7149 -0.3841 27.0061 32.6523 20.0309 -14.3956 39.8643 14.0503 -20.2543 51.6688 -0.0875 -0.0481 0.0042 -11.7819 1.0634 -15.339 -0.0345 -0.0278 -0.3338 28.9181 3.0297 -3.8266 -20.3953 0.8078 -7.352 -0.0033 -0.1012 -0.051 0 0 0 0.0875 -0.0481 0.0042 -22.334 1.6624 1.7223 0.0345 -0.0278 -0.3338 23.8867 -0.9159 2.7473 -4.971 3.0217 0.6101 0.0033 -0.1012 -0.051 0 0 0 
0.5814 -0.3248 0.7028 -2.5964 -1.014 -125.6623 -0.0004 -0.0316 0.0778 -1.1201 -0.0609 1.3166 -0.0006 -0.001 0.1054 3.0045 0.2821 1.4637 0 0 0 0 -0.0485 0.1662 15.2391 2.8396 11.4387 -24.8942 4.4146 14.4743 0 -0.0436 0.0633 0 -0.0001 0 5.1939 -0.1458 -3.6795 4.4111 0.2747 0.0229 5.1939 -0.1459 -3.6796 5.0002 -0.3116 -0.0243 -0.0184 -0.0578 0.1067 0.5575 -4.6158 -3.3271 -0.1356 -0.0037 -0.0169 25.4658 -18.2043 8.3014 -0.1336 0.0017 -0.1531 1.7018 4.9168 21.0195 -0.1086 -0.1548 -0.1038 9.2641 35.5775 -16.5488 15.0093 -17.3469 3.9554 20.446 -14.1667 15.4247 26.9239 -15.5232 20.2748 -3.8824 -6.3132 3.2558 14.8417 -18.6184 10.1796 12.5199 -17.6022 9.0486 -7.1712 -6.0513 4.9406 13.3374 -20.3728 6.485 9.8567 -20.5751 6.9476 -11.425 -10.6338 4.5757 10.1023 -19.4041 1.7454 12.2755 -24.1869 5.0319 -6.4974 -33.4017 -33.6621 16.0465 15.5162 -40.5498 10.5595 22.7 -51.9633 0.0184 -0.0578 0.1067 -0.1976 3.2973 -1.0346 0.1356 -0.0037 -0.0169 29.7619 25.0206 -1.4427 0.1336 0.0017 -0.1531 -7.1873 5.0111 -23.7742 0.1086 -0.1548 -0.1037 10.8272 -48.006 10.5715 43.4465 24.1508 -33.2776 47.5999 17.238 -41.2199 52.4648 16.5575 -44.7273 -5.4029 4.1867 -1.9996 13.283 17.026 -8.6679 10.967 15.9619 -7.5685 -8.5931 3.6342 -4.0455 12.0019 18.4406 -5.2533 8.4367 18.5526 -5.7054 -13.0529 7.7445 -3.7426 8.8297 16.9245 -0.6621 10.7614 21.696 -3.7148 -0.3841 27.0061 32.6523 20.0309 -14.3956 39.8643 14.0503 -20.2544 51.6687 -0.0875 -0.0481 0.0042 -11.7819 1.0634 -15.339 -0.0345 -0.0278 -0.3338 28.9181 3.0296 -3.8266 -20.3953 0.8078 -7.3521 -0.0033 -0.1012 -0.051 0 0 0 0.0875 -0.0481 0.0042 -22.334 1.6624 1.7223 0.0345 -0.0278 -0.3338 23.8867 -0.9159 2.7473 -4.971 3.0217 0.6101 0.0033 -0.1012 -0.051 0 0 0 
0.5814 -0.3248 0.7028 -2.5964 -1.014 -125.6623 -0.0004 -0.0316 0.0778 -1.1201 -0.0609 1.3166 -0.0006 -0.001 0.1054 3.0045 0.2821 1.4637 0 0 0 0 -0.0485 0.1662 15.2391 2.8396 11.4387 -24.8942 4.4146 14.4743 0 -0.0436 0.0633 0 -0.0001 0 5.1939 -0.1458 -3.6795 4.4111 0.2747 0.0229 5.1939 -0.1459 -3.6796 5.0002 -0.3116 -0.0243 -0.0184 -0.0578 0.1067 0.5575 -4.6158 -3.3271 -0.1356 -0.0037 -0.0169 25.4658 -18.2043 8.3014 -0.1336 0.0017 -0.1531 1.7018 4.9168 21.0195 -0.1086 -0.1548 -0.1038 9.2641 35.5775 -16.5488 15.0093 -17.347 3.9555 20.446 -14.1667 15.4247 26.9239 -15.5232 20.2747 -3.8824 -6.3133 3.2558 14.8417 -18.6184 10.1796 12.5199 -17.6022 9.0486 -7.1712 -6.0513 4.9406 13.3374 -20.3728 6.485 9.8567 -20.5751 6.9476 -11.425 -10.6339 4.5757 10.1023 -19.4041 1.7454 12.2755 -24.1869 5.0319 -6.4974 -33.4017 -33.6621 16.0465 15.5162 -40.5498 10.5595 22.6999 -51.9633 0.0184 -0.0578 0.1067 -0.1976 3.2973 -1.0346 0.1356 -0.0037 -0.0169 29.7619 25.0206 -1.4427 0.1336 0.0017 -0.1531 -7.1873 5.0111 -23.7742 0.1086 -0.1548 -0.1037 10.8272 -48.006 10.5715 43.4465 24.1508 -33.2776 47.5999 17.238 -41.2199 52.4648 16.5575 -44.7273 -5.4029 4.1867 -1.9996 13.283 17.026 -8.6679 10.967 15.9619 -7.5685 -8.5931 3.6342 -4.0455 12.0019 18.4406 -5.2533 8.4367 18.5526 -5.7054 -13.0529 7.7445 -3.7426 8.8297 16.9245 -0.6621 10.7614 21.696 -3.7148 -0.3841 27.0061 32.6523 20.0309 -14.3956 39.8643 14.0503 -20.2544 51.6687 -0.0875 -0.0481 0.0042 -11.7819 1.0634 -15.339 -0.0345 -0.0278 -0.3338 28.9181 3.0296 -3.8266 -20.3953 0.8078 -7.3521 -0.0033 -0.1012 -0.051 0 0 0 0.0875 -0.0481 0.0042 -22.334 1.6624 1.7223 0.0345 -0.0278 -0.3338 23.8867 -0.9159 2.7473 -4.971 3.0217 0.61 0.0033 -0.1012 -0.051 0 0 0 
0.5814 -0.3248 0.7028 -2.5964 -1.014 -125.6623 -0.0004 -0.0316 0.0778 -1.1201 -0.0609 1.3166 -0.0006 -0.001 0.1054 3.0045 0.2821 1.4637 0 0 0 0 -0.0485 0.1662 15.2391 2.8396 11.4387 -24.8942 4.4146 14.4743 0 -0.0436 0.0633 0 -0.0001 0 5.1939 -0.1458 -3.6795 4.4111 0.2747 0.0229 5.1939 -0.1459 -3.6796 5.0002 -0.3116 -0.0243 -0.0184 -0.0578 0.1067 0.5575 -4.6158 -3.3271 -0.1356 -0.0037 -0.0169 25.4658 -18.2043 8.3014 -0.1336 0.0017 -0.1531 1.7018 4.9168 21.0195 -0.1086 -0.1548 -0.1038 9.2641 35.5775 -16.5488 15.0093 -17.3469 3.9555 20.446 -14.1667 15.4247 26.9239 -15.5232 20.2748 -3.8824 -6.3132 3.2558 14.8417 -18.6184 10.1796 12.5199 -17.6022 9.0486 -7.1711 -6.0513 4.9406 13.3373 -20.3729 6.485 9.8567 -20.5751 6.9476 -11.425 -10.6338 4.5757 10.1023 -19.4041 1.7454 12.2755 -24.1869 5.0319 -6.4974 -33.4017 -33.6621 16.0465 15.5162 -40.5498 10.5595 22.7 -51.9633 0.0184 -0.0578 0.1067 -0.1976 3.2973 -1.0346 0.1356 -0.0037 -0.0169 29.7619 25.0206 -1.4427 0.1336 0.0017 -0.1531 -7.1873 5.0111 -23.7742 0.1086 -0.1548 -0.1037 10.8272 -48.006 10.5715 43.4465 24.1508 -33.2776 47.5999 17.238 -41.2199 52.4648 16.5575 -44.7273 -5.4029 4.1867 -1.9996 13.283 17.026 -8.6679 10.967 15.9619 -7.5685 -8.5931 3.6342 -4.0455 12.0019 18.4406 -5.2533 8.4367 18.5526 -5.7054 -13.0529 7.7445 -3.7426 8.8297 16.9245 -0.6621 10.7614 21.696 -3.7148 -0.3841 27.0061 32.6523 20.0309 -14.3956 39.8643 14.0503 -20.2544 51.6687 -0.0875 -0.0481 0.0042 -11.7819 1.0634 -15.339 -0.0345 -0.0278 -0.3338 28.9181 3.0296 -3.8266 -20.3953 0.8078 -7.3521 -0.0033 -0.1012 -0.051 0 0 0 0.0875 -0.0481 0.0042 -22.334 1.6624 1.7223 0.0345 -0.0278 -0.3338 23.8867 -0.9159 2.7473 -4.971 3.0217 0.6101 0.0033 -0.1012 -0.051 -0.0001 0 0 
